<svg width="28" height="28" viewBox="0 0 28 28" fill="none" xmlns="http://www.w3.org/2000/svg">
<rect width="28" height="28" rx="14" fill="#1A46A7"/>
<path d="M13.6594 18.5V13.18C13.6594 12.9373 13.6594 12.69 13.6594 12.438C13.6687 12.1767 13.6734 11.9107 13.6734 11.64C13.3654 11.92 13.0247 12.1673 12.6514 12.382C12.278 12.5873 11.886 12.7273 11.4754 12.802L11.2514 10.814C11.494 10.7953 11.7507 10.7347 12.0214 10.632C12.3014 10.5293 12.5767 10.4033 12.8474 10.254C13.118 10.1047 13.3607 9.946 13.5754 9.778C13.79 9.60067 13.9534 9.428 14.0654 9.26H15.9834V18.5H13.6594Z" fill="white"/>
</svg>
