<svg width="56" height="51" viewBox="0 0 56 51" fill="none" xmlns="http://www.w3.org/2000/svg">
<path d="M24.4356 30.3958C25.2396 30.0959 24.7167 29.6501 24.7651 29.1711C25.6613 20.2318 39.2852 18.7655 45.5985 23.3768C43.7664 23.835 42.198 25.0763 40.9503 26.3927C38.714 28.742 37.5015 32.5327 34.0395 33.5408C31.5133 34.2781 28.6708 34.0615 26.4917 32.5869C28.4687 29.3002 31.8077 26.6426 35.2784 24.8472C35.3267 24.5848 35.0544 24.6764 34.8874 24.7223C30.8104 25.8053 24.8969 30.9581 23.9962 34.9571C23.7238 36.1568 25.4241 37.3065 26.3511 37.9646C33.3673 42.9758 41.126 40.8555 47.4041 36.1026C47.76 35.8319 48.296 35.0321 48.7529 35.1445L55.9141 42.0386C52.9705 45.0003 49.5349 47.6662 45.4754 49.12C30.0283 54.6436 12.1341 46.8081 8.8259 31.0873C8.32066 28.6796 8.38217 27.0342 7.5694 24.6098C6.02732 19.9943 5.14425 14.5666 0.513635 11.7132C0.438948 11.3466 0.684977 11.5091 0.913432 11.4466C10.6272 8.8681 26.1402 14.7249 24.7563 26.0511C24.6772 26.6843 24.1764 27.4757 24.1368 27.8839C24.0797 28.438 24.7124 29.6418 24.4312 30.3916L24.4356 30.3958ZM23.056 34.4697C23.1395 28.313 19.5985 22.6437 14.9722 18.5614L12.5603 16.8535C16.4704 20.8566 19.7698 25.6054 21.1537 30.9706L23.056 34.4697Z" fill="#F6F6F6"/>
<path d="M51.0331 12.7087C50.2203 13.5918 49.3416 14.4375 48.6211 15.3997L48.2652 15.558C45.9807 13.9043 43.5731 11.9423 40.8273 11.0217C35.5376 9.24299 29.3518 10.0553 25.2044 13.7543C24.251 14.6041 23.6052 15.7871 22.6519 16.5202C20.7451 14.3666 17.9773 12.7171 15.2622 11.6049C14.6867 11.3674 13.9178 11.2258 13.3203 10.9967C13.1534 10.9342 13.0128 11.0883 13.0743 10.7384C17.4633 4.29429 25.4373 0.432804 33.4596 0.0454059C41.6664 -0.354489 49.737 1.86576 55.4967 7.55177L55.4484 7.8267C53.9327 9.41794 52.5136 11.0925 51.0287 12.7046L51.0331 12.7087Z" fill="#F6F6F6"/>
</svg>
