<svg width="18" height="16" viewBox="0 0 18 16" fill="none" xmlns="http://www.w3.org/2000/svg">
<path d="M12.0936 12.0936C13.8021 10.385 13.8021 7.61495 12.0936 5.90641C10.385 4.19786 7.61495 4.19786 5.90641 5.90641C4.19786 7.61495 4.19786 10.385 5.90641 12.0936M14.5685 14.5685C17.6438 11.4931 17.6438 6.50691 14.5685 3.43153C11.4931 0.356155 6.50691 0.356155 3.43153 3.43153C0.356155 6.50691 0.356155 11.4931 3.43153 14.5685M9.875 9C9.875 9.48325 9.48325 9.875 9 9.875C8.51675 9.875 8.125 9.48325 8.125 9C8.125 8.51675 8.51675 8.125 9 8.125C9.48325 8.125 9.875 8.51675 9.875 9Z" stroke="#F6F6F6" stroke-width="1.75" stroke-linecap="round" stroke-linejoin="round"/>
</svg>
