<svg width="16" height="22" viewBox="0 0 16 22" fill="none" xmlns="http://www.w3.org/2000/svg">
<path d="M11 21V15.9612C11 15.3537 10.7238 14.7791 10.2494 14.3995L8.5 13M8.5 13L10 6.5M8.5 13L7 12M10 6.5L8 6M10 6.5L12.0426 9.7681C12.3345 10.2352 12.8062 10.5612 13.3463 10.6693L15 11M7 12L8 6M7 12L6.40011 15.2994C6.18673 16.473 5.00015 17.2 3.85767 16.8573L1 16M8 6L5.10557 7.44721C4.428 7.786 4 8.47852 4 9.23607V11M11.5 2.5C11.5 3.05228 11.0523 3.5 10.5 3.5C9.94772 3.5 9.5 3.05228 9.5 2.5C9.5 1.94772 9.94772 1.5 10.5 1.5C11.0523 1.5 11.5 1.94772 11.5 2.5Z" stroke="white" stroke-width="2" stroke-linecap="round" stroke-linejoin="round"/>
</svg>
