<svg width="252" height="94" viewBox="0 0 252 94" fill="none" xmlns="http://www.w3.org/2000/svg">
<g clip-path="url(#clip0_2953_3337)" filter="url(#filter0_d_2953_3337)">
<path d="M96.3216 61.8162C93.0476 61.8162 90.3788 60.9445 88.308 59.201C86.2371 57.4576 85.209 54.5831 85.209 50.5847V29.2601H96.1976V48.0272C96.1976 50.0732 96.606 51.4997 97.4227 52.3066C98.2393 53.1134 99.406 53.5169 100.915 53.5169C102.425 53.5169 103.788 52.9549 104.889 51.8239C105.99 50.7 106.537 48.8773 106.537 46.363V29.2529H117.526V61.175H107.704L107.383 55.1738C106.348 57.4288 104.904 59.1002 103.052 60.188C101.2 61.2758 98.9612 61.8162 96.3289 61.8162H96.3216Z" fill="white"/>
<path d="M133.736 15.7231V50.3252C133.736 51.73 133.969 52.7314 134.45 53.3294C134.924 53.9273 135.719 54.2227 136.842 54.2227C137.491 54.2227 138.023 54.1795 138.461 54.093C138.891 54.0066 139.409 53.8841 140.014 53.7112L139.307 60.2238C138.534 60.6921 137.52 61.0739 136.266 61.3693C135.019 61.6647 133.787 61.816 132.584 61.816C129.135 61.816 126.641 61.0307 125.088 59.453C123.535 57.8753 122.762 55.3033 122.762 51.73V15.7231H133.75H133.736Z" fill="white"/>
<path d="M163.522 29.2528V36.9758H153.897V49.8066C153.897 51.3411 154.276 52.4361 155.027 53.0917C155.778 53.7545 156.828 54.0787 158.162 54.0787C159.198 54.0787 160.08 53.9635 160.809 53.7257C161.538 53.4952 162.231 53.1422 162.88 52.6739L164.047 59.3811C162.967 60.1087 161.604 60.6922 159.941 61.1389C158.286 61.5856 156.616 61.8089 154.932 61.8089C151.228 61.8089 148.311 61.0308 146.175 59.4819C144.045 57.9258 142.952 55.3034 142.908 51.6005V36.983H137.352V29.2601H142.908V22.1062L153.897 19.1021V29.2528H163.522Z" fill="white"/>
<path d="M171.602 25.5493C169.363 25.5493 167.737 25.1315 166.724 24.303C165.71 23.4745 165.207 22.1633 165.207 20.3767C165.207 18.59 165.71 17.214 166.724 16.3855C167.737 15.557 169.363 15.1392 171.602 15.1392C173.84 15.1392 175.415 15.557 176.451 16.3855C177.486 17.214 178.004 18.5468 178.004 20.3767C178.004 22.2065 177.486 23.4745 176.451 24.303C175.415 25.1315 173.804 25.5493 171.602 25.5493ZM177.093 29.2523V61.1744H166.104V29.2523H177.093Z" fill="white"/>
<path d="M203.394 29.2529H214.769L203.139 61.175H190.021L178.391 29.2529H189.955L196.613 53.5745L203.394 29.2529Z" fill="white"/>
<path d="M233.444 40.9378C233.444 39.4465 233.021 38.265 232.182 37.3933C231.344 36.5216 230.213 36.0821 228.791 36.0821C227.37 36.0821 226.152 36.4352 225.138 37.134C224.125 37.84 223.425 39.0791 223.038 40.8658L213.734 38.6973C214.339 35.6355 215.929 33.186 218.517 31.3562C221.099 29.5263 224.745 28.6113 229.44 28.6113C234.136 28.6113 237.848 29.6415 240.458 31.7092C243.061 33.7768 244.367 36.7882 244.367 40.7433V52.4286C244.367 54.0856 245.118 54.9213 246.627 54.9213C247.4 54.9213 248.027 54.8348 248.501 54.6691L247.852 60.8648C246.561 61.4627 244.986 61.7581 243.134 61.7581C241.107 61.7581 239.364 61.3619 237.899 60.5766C236.433 59.7914 235.442 58.5882 234.924 56.9673C234.02 58.6243 232.583 59.849 230.629 60.6415C228.667 61.4267 226.589 61.823 224.395 61.823C221.077 61.823 218.437 61.0665 216.476 59.5536C214.514 58.0407 213.537 55.865 213.537 53.0121C213.537 50.714 214.237 48.8121 215.637 47.2992C217.037 45.7863 219.247 44.7345 222.258 44.1365L233.436 41.8383V40.945L233.444 40.9378ZM224.395 51.9819C224.395 52.9185 224.737 53.6173 225.43 54.0856C226.115 54.5539 226.939 54.7916 227.887 54.7916C229.353 54.7916 230.644 54.3521 231.766 53.4804C232.889 52.6087 233.444 51.2327 233.444 49.3596V47.5729L228.208 48.6608C226.917 48.9129 225.955 49.2875 225.335 49.7774C224.708 50.2673 224.395 51.0022 224.395 51.9819Z" fill="white"/>
<path d="M245.168 64.3223H185.682C183.663 64.3223 182.029 66.1882 182.029 68.5007C182.029 77.2323 188.22 84.3069 195.862 84.3069H234.982C242.624 84.3069 248.814 77.2323 248.814 68.5007C248.814 66.1954 247.181 64.3223 245.161 64.3223H245.168Z" fill="#71277A"/>
<path d="M196.292 67.2402C197.495 67.2402 198.552 67.4203 199.471 67.7878C200.39 68.1552 201.192 68.6955 201.87 69.4015L200.244 71.5484C199.683 70.9648 199.077 70.5326 198.436 70.2444C197.787 69.9562 197.057 69.8122 196.234 69.8122C195.519 69.8122 195.001 69.9274 194.688 70.158C194.374 70.3885 194.221 70.6767 194.221 71.0081C194.221 71.2818 194.345 71.5052 194.6 71.6925C194.855 71.8798 195.271 72.0383 195.84 72.1679L198.013 72.6506C199.303 72.946 200.251 73.3783 200.849 73.9474C201.447 74.5165 201.746 75.2658 201.746 76.2095C201.746 77.1533 201.513 77.8737 201.039 78.5005C200.572 79.1273 199.923 79.5955 199.099 79.9125C198.275 80.2295 197.335 80.388 196.285 80.388C194.979 80.388 193.784 80.1791 192.704 79.7612C191.618 79.3434 190.757 78.7887 190.123 78.1115L191.749 75.8853C192.23 76.4401 192.887 76.9011 193.703 77.2686C194.527 77.636 195.373 77.8161 196.248 77.8161C197.604 77.8161 198.283 77.4199 198.283 76.6346C198.283 76.3608 198.18 76.1375 197.976 75.9502C197.772 75.7629 197.407 75.6044 196.868 75.4747L194.483 74.956C193.754 74.8047 193.105 74.5814 192.537 74.3004C191.968 74.0194 191.523 73.6376 191.195 73.1693C190.867 72.7011 190.706 72.1103 190.706 71.3971C190.706 70.5974 190.925 69.8842 191.37 69.2646C191.815 68.6451 192.449 68.148 193.288 67.7878C194.119 67.4275 195.118 67.2474 196.285 67.2474L196.292 67.2402Z" fill="white"/>
<path d="M203.102 80.1938V67.4351H213.157V70.007H206.463V72.6005H211.786V75.0139H206.463V77.6219H213.412V80.1938H203.102Z" fill="white"/>
<path d="M226.327 67.4351V80.1938H222.586L218.575 73.2921L217.598 71.3974H217.576L217.657 73.7532V80.1938H214.682V67.4351H218.415L222.425 74.3367L223.403 76.2315H223.424L223.344 73.8757V67.4351H226.319H226.327Z" fill="white"/>
<path d="M240.16 80.1938H236.696L235.799 77.3121H231.38L230.462 80.1938H227.078L231.621 67.4351H235.653L240.174 80.1938H240.16ZM232 75.05H235.172L233.59 69.8917L232.007 75.05H232Z" fill="white"/>
<path d="M42.9039 53.07C44.2383 52.5513 43.3706 51.7804 43.4508 50.9519C44.9383 35.4916 67.55 32.9557 78.0282 40.9308C74.9876 41.7233 72.3844 43.8701 70.3136 46.1467C66.6021 50.2099 64.5895 56.7658 58.8436 58.5092C54.6509 59.7843 49.9331 59.4097 46.3164 56.8594C49.5977 51.1753 55.1394 46.5789 60.8999 43.4739C60.9801 43.02 60.528 43.1785 60.2509 43.2578C53.4842 45.1309 43.6695 54.0425 42.1747 60.9586C41.7226 63.0335 44.5445 65.0218 46.0831 66.1601C57.728 74.8268 70.6052 71.1599 81.0251 62.9398C81.6158 62.4715 82.5053 61.0883 83.2637 61.2828L95.1492 73.2059C90.2638 78.3281 84.5616 82.9388 77.8241 85.4531C52.1863 95.006 22.487 81.4547 16.9963 54.2659C16.1578 50.1018 16.2599 47.2561 14.9109 43.0633C12.3515 35.0809 10.8859 25.6938 3.20036 20.7589C3.0764 20.1249 3.48474 20.4059 3.86391 20.2978C19.986 15.8384 45.7331 25.9676 43.4362 45.5559C43.3049 46.651 42.4737 48.0198 42.4081 48.7258C42.3133 49.684 43.3633 51.766 42.8966 53.0628L42.9039 53.07ZM40.6143 60.1157C40.7528 49.4678 34.8757 39.6629 27.1975 32.6027L23.1943 29.6489C29.684 36.5722 35.1601 44.7851 37.457 54.0642L40.6143 60.1157Z" fill="#009E00"/>
<path d="M87.0485 22.4804C85.6996 24.0077 84.2412 25.4702 83.0454 27.1344L82.4547 27.4082C78.663 24.5481 74.6672 21.1549 70.1098 19.5627C61.3306 16.4865 51.0638 17.8913 44.1804 24.2887C42.5981 25.7584 41.5262 27.8044 39.9439 29.0723C36.7793 25.3477 32.1855 22.4949 27.6792 20.5713C26.724 20.1607 25.4479 19.9157 24.4562 19.5195C24.1791 19.4114 23.9458 19.678 24.0479 19.0728C31.3323 7.92785 44.5668 1.2495 57.8816 0.579505C71.5025 -0.112104 84.8975 3.72776 94.4569 13.5616L94.3767 14.0371C91.8611 16.7891 89.5058 19.6852 87.0412 22.4732L87.0485 22.4804Z" fill="white"/>
</g>
<defs>
<filter id="filter0_d_2953_3337" x="0.721292" y="0.5" width="250.557" height="92.9129" filterUnits="userSpaceOnUse" color-interpolation-filters="sRGB">
<feFlood flood-opacity="0" result="BackgroundImageFix"/>
<feColorMatrix in="SourceAlpha" type="matrix" values="0 0 0 0 0 0 0 0 0 0 0 0 0 0 0 0 0 0 127 0" result="hardAlpha"/>
<feOffset dy="2.45644"/>
<feGaussianBlur stdDeviation="1.22822"/>
<feComposite in2="hardAlpha" operator="out"/>
<feColorMatrix type="matrix" values="0 0 0 0 0 0 0 0 0 0 0 0 0 0 0 0 0 0 0.25 0"/>
<feBlend mode="normal" in2="BackgroundImageFix" result="effect1_dropShadow_2953_3337"/>
<feBlend mode="normal" in="SourceGraphic" in2="effect1_dropShadow_2953_3337" result="shape"/>
</filter>
<clipPath id="clip0_2953_3337">
<rect width="245.644" height="88" fill="white" transform="translate(3.17773 0.5)"/>
</clipPath>
</defs>
</svg>
