<svg width="45" height="40" viewBox="0 0 45 40" fill="none" xmlns="http://www.w3.org/2000/svg">
<path d="M19.299 23.8939C19.931 23.6581 19.52 23.3077 19.558 22.9312C20.2625 15.904 30.9721 14.7514 35.935 18.3763C34.4948 18.7365 33.2619 19.7123 32.281 20.7471C30.5232 22.5939 29.57 25.5737 26.8485 26.3662C24.8627 26.9457 22.6282 26.7755 20.9152 25.6163C22.4694 23.0327 25.0941 20.9435 27.8224 19.5322C27.8604 19.3259 27.6463 19.398 27.5151 19.434C24.3101 20.2854 19.6616 24.3359 18.9536 27.4795C18.7395 28.4226 20.076 29.3263 20.8047 29.8437C26.3201 33.783 32.4192 32.1162 37.3544 28.38C37.6341 28.1671 38.0555 27.5384 38.4146 27.6268L44.044 33.0462C41.7301 35.3744 39.0294 37.4701 35.8382 38.6129C23.6954 42.9549 9.62889 36.7955 7.02833 24.4375C6.63116 22.5448 6.67951 21.2513 6.0406 19.3456C4.82838 15.7174 4.13421 11.4507 0.494117 9.20765C0.435406 8.91949 0.628807 9.04719 0.808394 8.99808C8.4443 6.97114 20.639 11.5751 19.5511 20.4786C19.4889 20.9763 19.0952 21.5984 19.0641 21.9193C19.0192 22.3549 19.5165 23.3012 19.2955 23.8906L19.299 23.8939ZM18.2145 27.0964C18.2802 22.2566 15.4965 17.8 11.8599 14.591L9.96389 13.2484C13.0376 16.3952 15.6312 20.1282 16.7191 24.3458L18.2145 27.0964Z" fill="#009E00"/>
<path d="M40.2071 9.99025C39.5682 10.6844 38.8775 11.3492 38.3111 12.1056L38.0314 12.23C36.2355 10.93 34.3429 9.38773 32.1844 8.66406C28.0263 7.26584 23.1636 7.90437 19.9034 10.8122C19.154 11.4802 18.6463 12.4101 17.8969 12.9864C16.398 11.2935 14.2222 9.9968 12.0879 9.1225C11.6355 8.93585 11.0311 8.82452 10.5614 8.64442C10.4302 8.5953 10.3197 8.71646 10.368 8.4414C13.8182 3.37571 20.0864 0.340224 26.3927 0.0356932C32.844 -0.278661 39.1883 1.46666 43.716 5.93638L43.678 6.1525C42.4865 7.40337 41.371 8.71973 40.2037 9.98697L40.2071 9.99025Z" fill="#0D3315"/>
</svg>
