<svg width="57" height="54" viewBox="0 0 57 54" fill="none" xmlns="http://www.w3.org/2000/svg">
<g filter="url(#filter0_d_4845_2894)">
<path d="M25.8156 30.8939C26.4476 30.6581 26.0366 30.3077 26.0746 29.9312C26.7791 22.904 37.4887 21.7514 42.4516 25.3763C41.0114 25.7365 39.7785 26.7123 38.7976 27.7471C37.0398 29.5939 36.0866 32.5737 33.3651 33.3662C31.3793 33.9457 29.1448 33.7755 27.4318 32.6163C28.986 30.0327 31.6107 27.9435 34.339 26.5322C34.377 26.3259 34.1629 26.398 34.0317 26.434C30.8267 27.2854 26.1782 31.3359 25.4702 34.4795C25.2561 35.4226 26.5926 36.3263 27.3213 36.8437C32.8367 40.783 38.9358 39.1162 43.871 35.38C44.1507 35.1671 44.5721 34.5384 44.9312 34.6268L50.5606 40.0462C48.2467 42.3744 45.546 44.4701 42.3549 45.6129C30.212 49.9549 16.1455 43.7955 13.5449 31.4375C13.1478 29.5448 13.1961 28.2513 12.5572 26.3456C11.345 22.7174 10.6508 18.4507 7.01072 16.2076C6.95201 15.9195 7.14541 16.0472 7.325 15.9981C14.9609 13.9711 27.1556 18.5751 26.0677 27.4786C26.0055 27.9763 25.6118 28.5984 25.5807 28.9193C25.5358 29.3549 26.0331 30.3012 25.8121 30.8906L25.8156 30.8939ZM24.7311 34.0964C24.7968 29.2566 22.0132 24.8 18.3765 21.591L16.4805 20.2484C19.5542 23.3952 22.1478 27.1282 23.2357 31.3458L24.7311 34.0964Z" fill="white"/>
<path d="M46.7237 16.9902C46.0848 17.6844 45.3941 18.3492 44.8277 19.1056L44.548 19.23C42.7521 17.93 40.8595 16.3877 38.701 15.6641C34.5429 14.2658 29.6802 14.9044 26.42 17.8122C25.6706 18.4802 25.1629 19.4101 24.4135 19.9864C22.9146 18.2935 20.7388 16.9968 18.6045 16.1225C18.1521 15.9358 17.5477 15.8245 17.078 15.6444C16.9468 15.5953 16.8363 15.7165 16.8846 15.4414C20.3348 10.3757 26.6031 7.34022 32.9093 7.03569C39.3606 6.72134 45.7049 8.46666 50.2326 12.9364L50.1946 13.1525C49.0031 14.4034 47.8876 15.7197 46.7203 16.987L46.7237 16.9902Z" fill="white"/>
</g>
<defs>
<filter id="filter0_d_4845_2894" x="0.8" y="0.8" width="55.9605" height="52.4" filterUnits="userSpaceOnUse" color-interpolation-filters="sRGB">
<feFlood flood-opacity="0" result="BackgroundImageFix"/>
<feColorMatrix in="SourceAlpha" type="matrix" values="0 0 0 0 0 0 0 0 0 0 0 0 0 0 0 0 0 0 127 0" result="hardAlpha"/>
<feOffset/>
<feGaussianBlur stdDeviation="3.1"/>
<feComposite in2="hardAlpha" operator="out"/>
<feColorMatrix type="matrix" values="0 0 0 0 0 0 0 0 0 0 0 0 0 0 0 0 0 0 0.73 0"/>
<feBlend mode="normal" in2="BackgroundImageFix" result="effect1_dropShadow_4845_2894"/>
<feBlend mode="normal" in="SourceGraphic" in2="effect1_dropShadow_4845_2894" result="shape"/>
</filter>
</defs>
</svg>
