<svg width="32" height="33" viewBox="0 0 32 33" fill="none" xmlns="http://www.w3.org/2000/svg">
<path d="M17.3337 4.7002H9.33366C7.8609 4.7002 6.66699 5.8941 6.66699 7.36686V26.0335C6.66699 27.5063 7.8609 28.7002 9.33366 28.7002H22.667C24.1398 28.7002 25.3337 27.5063 25.3337 26.0335V12.7002M17.3337 4.7002L25.3337 12.7002M17.3337 4.7002V11.3669C17.3337 12.1032 17.9306 12.7002 18.667 12.7002H25.3337" stroke="#00304D" stroke-width="2.66667" stroke-linecap="round" stroke-linejoin="round"/>
<mask id="path-2-outside-1_7569_3419" maskUnits="userSpaceOnUse" x="9" y="17.0337" width="14" height="6" fill="black">
<rect fill="white" x="9" y="17.0337" width="14" height="6"/>
<path d="M10.5845 22.0337C10.3717 22.0337 10.2653 21.9236 10.2653 21.7033V18.4441C10.2653 18.2238 10.3754 18.1137 10.5957 18.1137H12.0573C12.4231 18.1137 12.7125 18.1996 12.9253 18.3713C13.1418 18.543 13.2501 18.8324 13.2501 19.2393C13.2501 19.6462 13.1418 19.9374 12.9253 20.1129C12.7125 20.2884 12.4231 20.3761 12.0573 20.3761H10.9093V21.7033C10.9093 21.9236 10.801 22.0337 10.5845 22.0337ZM10.9093 19.7713H11.9677C12.1581 19.7713 12.3055 19.7302 12.4101 19.6481C12.5146 19.566 12.5669 19.4297 12.5669 19.2393C12.5669 19.0526 12.5146 18.9182 12.4101 18.8361C12.3055 18.754 12.1581 18.7129 11.9677 18.7129H10.9093V19.7713ZM15.0245 22.0337C14.8042 22.0337 14.6941 21.9236 14.6941 21.7033V18.4441C14.6941 18.2238 14.8042 18.1137 15.0245 18.1137H15.9541C16.3461 18.1137 16.684 18.1865 16.9677 18.3321C17.2552 18.4777 17.4754 18.6961 17.6285 18.9873C17.7853 19.2785 17.8637 19.6406 17.8637 20.0737C17.8637 20.503 17.7853 20.8633 17.6285 21.1545C17.4754 21.4457 17.2552 21.666 16.9677 21.8153C16.684 21.9609 16.3461 22.0337 15.9541 22.0337H15.0245ZM15.3381 21.4345H15.9037C16.3069 21.4345 16.6205 21.3188 16.8445 21.0873C17.0722 20.8521 17.1861 20.5142 17.1861 20.0737C17.1861 19.6294 17.0722 19.2916 16.8445 19.0601C16.6205 18.8286 16.3069 18.7129 15.9037 18.7129H15.3381V21.4345ZM19.6773 22.0337C19.4645 22.0337 19.3581 21.9236 19.3581 21.7033V18.4441C19.3581 18.2238 19.4682 18.1137 19.6885 18.1137H21.6877C21.9117 18.1137 22.0237 18.2145 22.0237 18.4161C22.0237 18.614 21.9117 18.7129 21.6877 18.7129H20.0021V19.7321H21.5197C21.6242 19.7321 21.7045 19.7582 21.7605 19.8105C21.8202 19.8628 21.8501 19.9374 21.8501 20.0345C21.8501 20.2361 21.7399 20.3369 21.5197 20.3369H20.0021V21.7033C20.0021 21.9236 19.8938 22.0337 19.6773 22.0337Z"/>
</mask>
<path d="M10.5845 22.0337C10.3717 22.0337 10.2653 21.9236 10.2653 21.7033V18.4441C10.2653 18.2238 10.3754 18.1137 10.5957 18.1137H12.0573C12.4231 18.1137 12.7125 18.1996 12.9253 18.3713C13.1418 18.543 13.2501 18.8324 13.2501 19.2393C13.2501 19.6462 13.1418 19.9374 12.9253 20.1129C12.7125 20.2884 12.4231 20.3761 12.0573 20.3761H10.9093V21.7033C10.9093 21.9236 10.801 22.0337 10.5845 22.0337ZM10.9093 19.7713H11.9677C12.1581 19.7713 12.3055 19.7302 12.4101 19.6481C12.5146 19.566 12.5669 19.4297 12.5669 19.2393C12.5669 19.0526 12.5146 18.9182 12.4101 18.8361C12.3055 18.754 12.1581 18.7129 11.9677 18.7129H10.9093V19.7713ZM15.0245 22.0337C14.8042 22.0337 14.6941 21.9236 14.6941 21.7033V18.4441C14.6941 18.2238 14.8042 18.1137 15.0245 18.1137H15.9541C16.3461 18.1137 16.684 18.1865 16.9677 18.3321C17.2552 18.4777 17.4754 18.6961 17.6285 18.9873C17.7853 19.2785 17.8637 19.6406 17.8637 20.0737C17.8637 20.503 17.7853 20.8633 17.6285 21.1545C17.4754 21.4457 17.2552 21.666 16.9677 21.8153C16.684 21.9609 16.3461 22.0337 15.9541 22.0337H15.0245ZM15.3381 21.4345H15.9037C16.3069 21.4345 16.6205 21.3188 16.8445 21.0873C17.0722 20.8521 17.1861 20.5142 17.1861 20.0737C17.1861 19.6294 17.0722 19.2916 16.8445 19.0601C16.6205 18.8286 16.3069 18.7129 15.9037 18.7129H15.3381V21.4345ZM19.6773 22.0337C19.4645 22.0337 19.3581 21.9236 19.3581 21.7033V18.4441C19.3581 18.2238 19.4682 18.1137 19.6885 18.1137H21.6877C21.9117 18.1137 22.0237 18.2145 22.0237 18.4161C22.0237 18.614 21.9117 18.7129 21.6877 18.7129H20.0021V19.7321H21.5197C21.6242 19.7321 21.7045 19.7582 21.7605 19.8105C21.8202 19.8628 21.8501 19.9374 21.8501 20.0345C21.8501 20.2361 21.7399 20.3369 21.5197 20.3369H20.0021V21.7033C20.0021 21.9236 19.8938 22.0337 19.6773 22.0337Z" fill="#00304D"/>
<path d="M12.9253 18.3713L12.7578 18.5788L12.7596 18.5802L12.9253 18.3713ZM12.9253 20.1129L12.7574 19.9057L12.7556 19.9071L12.9253 20.1129ZM10.9093 20.3761V20.1094H10.6426V20.3761H10.9093ZM10.9093 19.7713H10.6426V20.038H10.9093V19.7713ZM12.4101 19.6481L12.2453 19.4384L12.2453 19.4384L12.4101 19.6481ZM10.9093 18.7129V18.4462H10.6426V18.7129H10.9093ZM10.5845 22.0337V21.767C10.5535 21.767 10.5375 21.7629 10.5318 21.761C10.5275 21.7595 10.5314 21.7601 10.5369 21.7658C10.5493 21.7787 10.5319 21.7746 10.5319 21.7033H10.2653H9.99861C9.99861 21.8523 10.0345 22.0134 10.1533 22.1364C10.2738 22.2611 10.4346 22.3004 10.5845 22.3004V22.0337ZM10.2653 21.7033H10.5319V18.4441H10.2653H9.99861V21.7033H10.2653ZM10.2653 18.4441H10.5319C10.5319 18.3751 10.549 18.3723 10.5364 18.3849C10.5239 18.3974 10.5266 18.3804 10.5957 18.3804V18.1137V17.847C10.4444 17.847 10.282 17.885 10.1593 18.0077C10.0366 18.1304 9.99861 18.2929 9.99861 18.4441H10.2653ZM10.5957 18.1137V18.3804H12.0573V18.1137V17.847H10.5957V18.1137ZM12.0573 18.1137V18.3804C12.3828 18.3804 12.6063 18.4566 12.7578 18.5788L12.9253 18.3713L13.0927 18.1638C12.8186 17.9426 12.4635 17.847 12.0573 17.847V18.1137ZM12.9253 18.3713L12.7596 18.5802C12.8866 18.681 12.9834 18.874 12.9834 19.2393H13.2501H13.5167C13.5167 18.7907 13.397 18.4051 13.091 18.1624L12.9253 18.3713ZM13.2501 19.2393H12.9834C12.9834 19.6041 12.8868 19.8008 12.7574 19.9057L12.9253 20.1129L13.0932 20.3201C13.3968 20.074 13.5167 19.6884 13.5167 19.2393H13.2501ZM12.9253 20.1129L12.7556 19.9071C12.6042 20.032 12.3816 20.1094 12.0573 20.1094V20.3761V20.6428C12.4647 20.6428 12.8207 20.5447 13.0949 20.3186L12.9253 20.1129ZM12.0573 20.3761V20.1094H10.9093V20.3761V20.6428H12.0573V20.3761ZM10.9093 20.3761H10.6426V21.7033H10.9093H11.1759V20.3761H10.9093ZM10.9093 21.7033H10.6426C10.6426 21.7735 10.6254 21.7769 10.6379 21.7641C10.6512 21.7506 10.6505 21.767 10.5845 21.767V22.0337V22.3004C10.735 22.3004 10.8966 22.2617 11.0182 22.138C11.139 22.0152 11.1759 21.8534 11.1759 21.7033H10.9093ZM10.9093 19.7713V20.038H11.9677V19.7713V19.5046H10.9093V19.7713ZM11.9677 19.7713V20.038C12.1927 20.038 12.4068 19.9898 12.5748 19.8578L12.4101 19.6481L12.2453 19.4384C12.2043 19.4706 12.1235 19.5046 11.9677 19.5046V19.7713ZM12.4101 19.6481L12.5748 19.8578C12.7681 19.7059 12.8335 19.4745 12.8335 19.2393H12.5669H12.3002C12.3002 19.3849 12.2611 19.426 12.2453 19.4384L12.4101 19.6481ZM12.5669 19.2393H12.8335C12.8335 19.0057 12.7669 18.7773 12.5748 18.6264L12.4101 18.8361L12.2453 19.0458C12.2623 19.0591 12.3002 19.0996 12.3002 19.2393H12.5669ZM12.4101 18.8361L12.5748 18.6264C12.4068 18.4944 12.1927 18.4462 11.9677 18.4462V18.7129V18.9796C12.1235 18.9796 12.2043 19.0136 12.2453 19.0458L12.4101 18.8361ZM11.9677 18.7129V18.4462H10.9093V18.7129V18.9796H11.9677V18.7129ZM10.9093 18.7129H10.6426V19.7713H10.9093H11.1759V18.7129H10.9093ZM16.9677 18.3321L16.8459 18.5693L16.8472 18.57L16.9677 18.3321ZM17.6285 18.9873L17.3924 19.1114L17.3937 19.1137L17.6285 18.9873ZM17.6285 21.1545L17.3937 21.0281L17.3924 21.0304L17.6285 21.1545ZM16.9677 21.8153L17.0894 22.0525L17.0906 22.0519L16.9677 21.8153ZM15.3381 21.4345H15.0714V21.7012H15.3381V21.4345ZM16.8445 21.0873L16.6529 20.9018L16.6529 20.9018L16.8445 21.0873ZM16.8445 19.0601L16.6529 19.2455L16.6544 19.2471L16.8445 19.0601ZM15.3381 18.7129V18.4462H15.0714V18.7129H15.3381ZM15.0245 22.0337V21.767C14.9555 21.767 14.9527 21.7499 14.9652 21.7625C14.9778 21.7751 14.9608 21.7723 14.9608 21.7033H14.6941H14.4274C14.4274 21.8545 14.4654 22.0169 14.5881 22.1397C14.7108 22.2624 14.8732 22.3004 15.0245 22.3004V22.0337ZM14.6941 21.7033H14.9608V18.4441H14.6941H14.4274V21.7033H14.6941ZM14.6941 18.4441H14.9608C14.9608 18.3751 14.9778 18.3723 14.9652 18.3849C14.9527 18.3974 14.9555 18.3804 15.0245 18.3804V18.1137V17.847C14.8732 17.847 14.7108 17.885 14.5881 18.0077C14.4654 18.1304 14.4274 18.2929 14.4274 18.4441H14.6941ZM15.0245 18.1137V18.3804H15.9541V18.1137V17.847H15.0245V18.1137ZM15.9541 18.1137V18.3804C16.3133 18.3804 16.6075 18.447 16.8459 18.5693L16.9677 18.3321L17.0894 18.0948C16.7604 17.926 16.3789 17.847 15.9541 17.847V18.1137ZM16.9677 18.3321L16.8472 18.57C17.0842 18.69 17.2646 18.8681 17.3924 19.1114L17.6285 18.9873L17.8645 18.8632C17.6863 18.5241 17.4261 18.2654 17.0882 18.0942L16.9677 18.3321ZM17.6285 18.9873L17.3937 19.1137C17.5241 19.3559 17.597 19.6715 17.597 20.0737H17.8637H18.1304C18.1304 19.6097 18.0465 19.2011 17.8633 18.8609L17.6285 18.9873ZM17.8637 20.0737H17.597C17.597 20.4717 17.5243 20.7856 17.3937 21.0281L17.6285 21.1545L17.8633 21.2809C18.0463 20.941 18.1304 20.5344 18.1304 20.0737H17.8637ZM17.6285 21.1545L17.3924 21.0304C17.2643 21.2742 17.0831 21.4548 16.8448 21.5786L16.9677 21.8153L17.0906 22.0519C17.4272 21.8771 17.6866 21.6172 17.8645 21.2786L17.6285 21.1545ZM16.9677 21.8153L16.8459 21.578C16.6075 21.7004 16.3133 21.767 15.9541 21.767V22.0337V22.3004C16.3789 22.3004 16.7604 22.2214 17.0894 22.0525L16.9677 21.8153ZM15.9541 22.0337V21.767H15.0245V22.0337V22.3004H15.9541V22.0337ZM15.3381 21.4345V21.7012H15.9037V21.4345V21.1678H15.3381V21.4345ZM15.9037 21.4345V21.7012C16.3598 21.7012 16.7499 21.5685 17.0361 21.2727L16.8445 21.0873L16.6529 20.9018C16.4911 21.069 16.2539 21.1678 15.9037 21.1678V21.4345ZM16.8445 21.0873L17.0361 21.2728C17.3267 20.9726 17.4528 20.5589 17.4528 20.0737H17.1861H16.9194C16.9194 20.4695 16.8178 20.7315 16.6529 20.9018L16.8445 21.0873ZM17.1861 20.0737H17.4528C17.4528 19.5858 17.3272 19.1705 17.0346 18.8731L16.8445 19.0601L16.6544 19.2471C16.8173 19.4127 16.9194 19.6731 16.9194 20.0737H17.1861ZM16.8445 19.0601L17.0361 18.8746C16.7499 18.5789 16.3598 18.4462 15.9037 18.4462V18.7129V18.9796C16.2539 18.9796 16.4911 19.0784 16.6529 19.2455L16.8445 19.0601ZM15.9037 18.7129V18.4462H15.3381V18.7129V18.9796H15.9037V18.7129ZM15.3381 18.7129H15.0714V21.4345H15.3381H15.6048V18.7129H15.3381ZM20.0021 18.7129V18.4462H19.7354V18.7129H20.0021ZM20.0021 19.7321H19.7354V19.9988H20.0021V19.7321ZM21.7605 19.8105L21.5784 20.0055L21.5849 20.0112L21.7605 19.8105ZM20.0021 20.3369V20.0702H19.7354V20.3369H20.0021ZM19.6773 22.0337V21.767C19.6463 21.767 19.6303 21.7629 19.6246 21.761C19.6203 21.7595 19.6242 21.7601 19.6296 21.7658C19.642 21.7787 19.6247 21.7746 19.6247 21.7033H19.3581H19.0914C19.0914 21.8523 19.1273 22.0134 19.2461 22.1364C19.3665 22.2611 19.5274 22.3004 19.6773 22.3004V22.0337ZM19.3581 21.7033H19.6247V18.4441H19.3581H19.0914V21.7033H19.3581ZM19.3581 18.4441H19.6247C19.6247 18.3751 19.6418 18.3723 19.6292 18.3849C19.6166 18.3974 19.6194 18.3804 19.6885 18.3804V18.1137V17.847C19.5372 17.847 19.3748 17.885 19.2521 18.0077C19.1294 18.1304 19.0914 18.2929 19.0914 18.4441H19.3581ZM19.6885 18.1137V18.3804H21.6877V18.1137V17.847H19.6885V18.1137ZM21.6877 18.1137V18.3804C21.7651 18.3804 21.7734 18.3984 21.7613 18.3875C21.7549 18.3818 21.7525 18.3762 21.7526 18.3764C21.7532 18.3782 21.757 18.3897 21.757 18.4161H22.0237H22.2903C22.2903 18.2665 22.2475 18.1076 22.118 17.9911C21.994 17.8794 21.8342 17.847 21.6877 17.847V18.1137ZM22.0237 18.4161H21.757C21.757 18.4411 21.7534 18.4512 21.7532 18.4518C21.7531 18.4519 21.7538 18.45 21.7558 18.4471C21.7578 18.4441 21.7604 18.4412 21.7631 18.4388C21.769 18.4337 21.7703 18.4353 21.7593 18.4385C21.7475 18.442 21.7249 18.4462 21.6877 18.4462V18.7129V18.9796C21.8332 18.9796 21.9921 18.9481 22.1162 18.8386C22.2466 18.7234 22.2903 18.5653 22.2903 18.4161H22.0237ZM21.6877 18.7129V18.4462H20.0021V18.7129V18.9796H21.6877V18.7129ZM20.0021 18.7129H19.7354V19.7321H20.0021H20.2687V18.7129H20.0021ZM20.0021 19.7321V19.9988H21.5197V19.7321V19.4654H20.0021V19.7321ZM21.5197 19.7321V19.9988C21.5503 19.9988 21.5677 20.0027 21.5757 20.0053C21.5826 20.0075 21.5818 20.0085 21.5785 20.0054L21.7605 19.8105L21.9424 19.6155C21.8214 19.5026 21.6668 19.4654 21.5197 19.4654V19.7321ZM21.7605 19.8105L21.5849 20.0112C21.5842 20.0106 21.583 20.0094 21.5818 20.0077C21.5806 20.0059 21.5801 20.0047 21.5801 20.0047C21.5801 20.0048 21.5834 20.013 21.5834 20.0345H21.8501H22.1167C22.1167 19.8792 22.0663 19.7238 21.9361 19.6098L21.7605 19.8105ZM21.8501 20.0345H21.5834C21.5834 20.0613 21.5796 20.0733 21.5788 20.0755C21.5786 20.0762 21.5809 20.0706 21.5874 20.0646C21.6004 20.0527 21.5942 20.0702 21.5197 20.0702V20.3369V20.6036C21.6653 20.6036 21.8243 20.5707 21.9475 20.458C22.0751 20.3412 22.1167 20.1828 22.1167 20.0345H21.8501ZM21.5197 20.3369V20.0702H20.0021V20.3369V20.6036H21.5197V20.3369ZM20.0021 20.3369H19.7354V21.7033H20.0021H20.2687V20.3369H20.0021ZM20.0021 21.7033H19.7354C19.7354 21.7735 19.7182 21.7769 19.7307 21.7641C19.744 21.7506 19.7432 21.767 19.6773 21.767V22.0337V22.3004C19.8278 22.3004 19.9894 22.2617 20.111 22.138C20.2318 22.0152 20.2687 21.8534 20.2687 21.7033H20.0021Z" fill="#00304D" mask="url(#path-2-outside-1_7569_3419)"/>
</svg>
