<svg width="18" height="18" viewBox="0 0 18 18" fill="none" xmlns="http://www.w3.org/2000/svg">
<path d="M7.00001 9H11M7.00001 9V7C7.00001 5.89543 7.89544 5 9.00001 5V5C10.1046 5 11 5.89543 11 7V9M7.00001 9H6V12H12V9H11M16.9844 6L14.6569 3.34315C11.5327 0.218951 6.46734 0.218951 3.34315 3.34315C0.218951 6.46734 0.218951 11.5327 3.34315 14.6569C6.46734 17.781 11.5327 17.781 14.6569 14.6569C15.7059 13.6078 16.4027 12.3398 16.7473 11M16.9844 6V3M16.9844 6L14 6" stroke="white" stroke-width="2" stroke-linecap="round" stroke-linejoin="round"/>
</svg>
