<svg width="15" height="12" viewBox="0 0 15 12" fill="none" xmlns="http://www.w3.org/2000/svg">
<path d="M11.3367 10.6668H12.3333C13.0697 10.6668 13.7113 10.0508 13.4773 9.35257C13.1208 8.28849 12.2437 7.645 10.7018 7.42209M8.66675 5.24315C8.86073 5.30447 9.08292 5.3335 9.33334 5.3335C10.4444 5.3335 11 4.76207 11 3.3335C11 1.90492 10.4444 1.3335 9.33334 1.3335C9.08292 1.3335 8.86073 1.36252 8.66675 1.42384M5.33333 7.3335C7.7423 7.3335 9.02636 8.00652 9.47733 9.35257C9.71126 10.0508 9.06971 10.6668 8.33333 10.6668H2.33333C1.59695 10.6668 0.955405 10.0508 1.18934 9.35257C1.64031 8.00652 2.92436 7.3335 5.33333 7.3335ZM5.33333 5.3335C6.44444 5.3335 7 4.76207 7 3.3335C7 1.90492 6.44444 1.3335 5.33333 1.3335C4.22222 1.3335 3.66667 1.90492 3.66667 3.3335C3.66667 4.76207 4.22222 5.3335 5.33333 5.3335Z" stroke="#4F4F4F" stroke-width="1.33333" stroke-linecap="round" stroke-linejoin="round"/>
</svg>
