<svg width="1440" height="36" viewBox="0 0 1440 36" fill="none" xmlns="http://www.w3.org/2000/svg">
<rect width="1440" height="36" fill="#3366CC"/>
<path d="M57.4539 15.4062L56.3828 15.7985L56.2796 16.0782L56.0397 16.2291C55.9717 15.3691 55.9278 15.028 55.9088 15.028L56.2958 15.023L57.0085 14.1825L55.9721 14.6123L55.8788 14.9049L54.8618 15.6503C54.8843 15.8344 54.9424 16.3941 54.9033 16.942L55.1282 16.7956C55.2254 20.8915 53.2883 22.4322 53.2883 22.4322C52.7985 22.2137 52.672 22.0536 52.672 22.0536C54.4389 20.1507 54.3578 17.3996 54.3547 17.3015L54.1685 17.4203C54.1685 17.4203 54.2448 16.55 54.195 16.1385L53.8693 16.3773C53.8618 16.0961 53.8448 15.8623 53.825 15.6992C54.0219 15.7118 54.225 15.6831 54.3918 15.567C54.5677 15.4436 54.661 15.0799 54.6902 14.9237C54.7195 14.7682 54.6851 14.7154 54.5875 14.6543C54.4898 14.5936 54.2843 14.4136 54.2009 14.3326C54.2009 14.3326 54.3693 14.2627 54.7634 14.4415C55.1887 14.636 55.5116 14.5412 55.8744 14.0213L55.4389 14.0828L55.4772 13.7924C55.4843 13.7955 55.4918 13.7993 55.4997 13.8039C55.5602 13.8444 55.7661 13.9174 55.8638 13.9361C55.9618 13.9552 55.959 13.9414 56.0207 13.977C56.0824 14.0117 56.1349 14.0266 56.1673 14.0117C56.1673 14.0117 56.4104 14.1439 56.5081 14.0117C56.5081 14.0117 56.6021 14.066 56.6496 14.0824C56.7227 14.1084 56.8409 14.1489 56.8792 14.1416C56.9183 14.1344 57.0112 14.1726 57.0262 14.1794C57.1796 14.2539 57.2733 14.2154 57.295 14.1794C57.3175 14.1439 57.1998 14.0262 57.1089 13.9529C57.0183 13.8795 56.9401 13.8654 56.9401 13.8654C56.9697 13.8463 56.9622 13.8177 56.9033 13.7493C56.8448 13.6801 56.6519 13.5884 56.6519 13.5884C56.6543 13.5338 56.4337 13.4016 56.3025 13.305C56.1693 13.2079 56.2239 13.2129 56.0843 13.0738C55.9452 12.9336 55.3065 12.4438 54.9883 12.2246C54.6705 12.0053 53.7977 11.3623 53.0511 11.1304C52.306 10.8981 51.8645 10.9508 51.5495 11.14C51.2337 11.3291 51.3119 11.582 51.3689 11.7382C51.4242 11.8945 51.5329 12.0905 51.5965 12.2108C51.6598 12.3315 51.6084 12.3292 51.5791 12.3487C51.5499 12.3667 51.5811 12.4144 51.5527 12.4095C51.5234 12.4049 51.5052 12.4404 51.4685 12.4805C51.4503 12.5008 51.3961 12.5183 51.3258 12.5321C51.3119 12.4752 51.3487 12.4324 51.3487 12.4324C51.2993 12.4045 51.2147 12.3953 51.2147 12.3953C51.225 12.3755 51.2637 12.3617 51.2637 12.3617C51.21 12.3483 51.1072 12.3659 51.1072 12.3659C51.1238 12.3403 51.1384 12.3361 51.1384 12.3361C51.042 12.3044 50.9558 12.38 50.921 12.4171C50.8783 12.3434 50.8238 12.2914 50.7696 12.2421C50.7115 12.1898 50.6819 12.1142 50.6194 12.0549C50.6194 12.0549 50.6704 11.9801 50.6337 11.9052C50.5977 11.8307 50.4977 11.7707 50.4392 11.7566C50.4392 11.7566 50.491 11.731 50.4835 11.6744C50.4764 11.6179 50.4214 11.5965 50.3625 11.6148C50.3032 11.632 50.2345 11.632 50.1902 11.6714C50.1902 11.6714 50.142 11.6763 50.1044 11.6718C50.1526 11.5163 50.1768 11.3038 49.9009 11.1396C49.5858 10.9505 49.1459 10.8981 48.3997 11.13C47.6538 11.3623 46.7807 12.0049 46.4633 12.2242C46.1455 12.4435 45.5059 12.9332 45.368 13.0734C45.2277 13.2125 45.2814 13.2075 45.1502 13.3046C45.0178 13.4012 44.7976 13.5334 44.8 13.5881C44.8 13.5881 44.6071 13.6801 44.5482 13.7489C44.4897 13.8173 44.4822 13.8459 44.5111 13.865C44.5111 13.865 44.4336 13.8792 44.3427 13.9525C44.2522 14.0259 44.1348 14.1435 44.1565 14.1791C44.1791 14.215 44.2711 14.2536 44.4257 14.1791C44.4399 14.1722 44.5332 14.134 44.5723 14.1412C44.6115 14.1481 44.7293 14.108 44.8024 14.082C44.8498 14.0652 44.9443 14.0114 44.9443 14.0114C45.0419 14.1435 45.2842 14.0114 45.2842 14.0114C45.3158 14.0259 45.37 14.0113 45.4305 13.9766C45.4917 13.9411 45.4893 13.9548 45.5866 13.9357C45.685 13.917 45.8909 13.8444 45.9514 13.8035C45.9597 13.7974 45.9684 13.794 45.9759 13.7913L46.015 14.0828L45.5795 14.0213C45.9411 14.5412 46.2645 14.6364 46.6898 14.4415C47.0842 14.2627 47.2526 14.3326 47.2526 14.3326C47.1696 14.4136 46.9633 14.5936 46.866 14.6543C46.7684 14.7158 46.734 14.7682 46.7637 14.9237C46.7925 15.0799 46.885 15.4436 47.0621 15.567C47.2289 15.6831 47.4321 15.7114 47.6289 15.6992C47.6091 15.8619 47.5925 16.0961 47.5842 16.3773L47.2554 16.1362C47.2056 16.5473 47.2815 17.4203 47.2815 17.4203L47.0957 17.3015C47.0917 17.4 47.0115 20.1507 48.7791 22.0536C48.7791 22.0536 48.6514 22.2137 48.1625 22.4322C48.1625 22.4322 46.2245 20.8911 46.3233 16.7956L46.5483 16.942C46.5083 16.3926 46.5668 15.831 46.589 15.6484L45.5751 14.9049L45.4814 14.6123L44.4451 14.1825L45.1585 15.023L45.5451 15.028C45.5253 15.028 45.4814 15.3691 45.4131 16.2291L45.1739 16.0782L45.0708 15.7985L44 15.4062L44.7577 16.2237L45.1344 16.2008C45.1344 16.2008 44.7486 19.8267 46.0222 21.7778C47.083 23.4011 48.6261 23.4141 50.0309 22.5021C49.9811 22.6607 49.8115 23.1325 49.3368 23.9925C49.3368 23.9925 49.6107 23.9925 49.904 24.0406C49.904 24.0406 49.8459 24.2767 49.8151 24.3478C49.785 24.4207 49.7902 24.5403 49.9345 24.5468C50.0795 24.551 50.2677 24.5686 50.2677 24.5686C50.2677 24.5686 50.242 24.739 50.238 24.8295C50.2337 24.9518 50.2214 25.0026 50.725 25.0232C51.2527 25.0026 51.2183 24.9518 51.2131 24.8295C51.2092 24.739 51.1851 24.5686 51.1851 24.5686C51.1851 24.5686 51.3736 24.5514 51.5183 24.5468C51.6625 24.5403 51.6677 24.4207 51.6372 24.3478C51.6076 24.2763 51.5471 24.0406 51.5471 24.0406C51.8412 23.9925 52.1151 23.9925 52.1151 23.9925C51.6396 23.1294 51.4693 22.6592 51.4191 22.5021C52.825 23.4137 54.3693 23.4026 55.431 21.7778C56.7041 19.8267 56.3183 16.2008 56.3183 16.2008L56.695 16.2237L57.4539 15.4062ZM51.3238 14.0026C51.3657 13.8199 51.3997 13.6664 51.4388 13.6923C51.4776 13.7183 51.5463 13.721 51.5708 13.6904C51.5957 13.6587 51.6029 13.6549 51.6226 13.6874C51.6424 13.7202 51.7594 13.7749 51.838 13.645C51.9163 13.5151 51.8942 13.5812 51.9163 13.6308C51.9388 13.6801 51.9997 13.7015 52.0681 13.6496C52.1365 13.598 52.1902 13.5521 52.2392 13.5288C52.2874 13.5059 52.2898 13.5174 52.3167 13.47C52.344 13.4222 52.3878 13.4009 52.3898 13.3703C52.3922 13.3393 52.3606 13.3042 52.4076 13.2805C52.4539 13.2568 52.476 13.24 52.5179 13.2591C52.5598 13.2782 52.5712 13.24 52.5934 13.266C52.6151 13.292 52.644 13.2946 52.6716 13.266C52.6985 13.2377 52.7183 13.193 52.7499 13.245C52.7815 13.2966 52.8523 13.3084 52.8669 13.2824C52.8823 13.2568 52.8942 13.2542 52.9135 13.2946C52.9333 13.3348 53.0041 13.3657 53.08 13.3539C53.08 13.3539 53.1507 13.4482 53.2369 13.4341C53.323 13.4196 53.3566 13.3775 53.3586 13.3214C53.3614 13.2645 53.3294 13.0734 53.3879 13.1151C53.4468 13.1575 53.4444 13.1388 53.461 13.1052C53.4784 13.0731 53.5053 13.1074 53.5349 13.1002C53.5641 13.0941 53.559 13.0578 53.608 13.1052C53.6574 13.1529 53.6618 13.1762 53.7084 13.1881C53.7547 13.1995 53.7744 13.2117 53.8234 13.2614C53.8728 13.3111 53.9266 13.3653 54.014 13.3344C54.014 13.3344 54.0701 13.4051 54.1294 13.4005C54.1294 13.4005 54.2491 13.5262 54.3175 13.5074C54.3175 13.5074 54.4345 13.5541 54.474 13.5498C54.5136 13.5453 54.5207 13.5197 54.5456 13.5327C54.5697 13.5476 54.5602 13.488 54.5966 13.5281C54.6325 13.5686 54.6993 13.6396 54.7408 13.6278C54.7408 13.6278 54.8393 13.708 54.9144 13.7164C54.9906 13.7263 55.0128 13.7481 55.0369 13.7481C55.061 13.7481 55.0491 13.7244 55.0934 13.7577C55.1369 13.7909 55.2013 13.807 55.2428 13.7909C55.2843 13.7737 55.3009 13.776 55.3385 13.781C55.3507 13.7825 55.3665 13.781 55.3839 13.7795C55.261 13.9208 55.1005 14.0331 54.8021 13.9441C54.4064 13.8257 54.2879 13.8822 54.2061 13.9628C54.1227 14.0427 53.942 14.275 53.8922 14.4217C53.8444 14.568 53.8689 14.6814 54.161 15.0127C54.161 15.0127 53.7796 15.036 53.2764 14.8797C52.7724 14.7242 52.3076 14.6673 51.8384 14.8709C51.757 14.9065 51.6815 14.9389 51.6112 14.9729C51.559 14.9217 51.4289 14.7922 51.3807 14.7334C51.3807 14.7334 51.4123 14.5825 51.41 14.4946C51.4072 14.3953 51.4029 14.3487 51.3661 14.2986C51.3285 14.2509 51.2831 14.1844 51.3238 14.0026ZM53.3388 15.6033C53.1167 15.7389 52.7392 15.8982 52.1799 15.8982C51.7436 15.8982 51.4072 15.8012 51.1685 15.6931C51.2677 15.6342 51.6523 15.423 52.1365 15.4108C52.6989 15.3962 52.9436 15.4715 53.2128 15.5624C53.2495 15.575 53.2926 15.5884 53.3388 15.6033ZM51.0218 14.8312C51.025 14.8327 51.0278 14.8335 51.0309 14.8346C51.1301 14.8725 51.2333 14.8583 51.2333 14.8583C51.2653 14.8774 51.4044 15.0039 51.4546 15.0516C51.3127 15.1261 51.1874 15.2041 51.0649 15.3045C51.0353 15.1873 50.9918 14.9959 51.0044 14.9317C51.0115 14.8958 51.0179 14.8614 51.0218 14.8312ZM50.325 12.246C50.3799 12.2811 50.4866 12.3418 50.5238 12.4297C50.5341 12.4561 50.5424 12.4813 50.5495 12.5054C50.4716 12.4866 50.4115 12.4855 50.3657 12.4928C50.2862 12.3686 50.1977 12.2876 50.1151 12.2341C50.2017 12.2223 50.2764 12.2142 50.325 12.246ZM49.8542 12.2104C49.8554 12.2078 49.857 12.2058 49.8582 12.2016C49.9254 12.2975 50.0704 12.4637 50.3028 12.5122C50.2787 12.5237 50.2605 12.5382 50.2475 12.5508C50.1214 12.5348 50.0107 12.5122 49.9811 12.4798C49.9443 12.4396 49.9277 12.4041 49.8981 12.4087C49.8692 12.4137 49.9005 12.3655 49.8716 12.348C49.842 12.3292 49.7918 12.3311 49.8542 12.2104ZM49.7574 13.7263C49.7677 13.7901 49.7854 13.8604 49.8198 13.9304C49.8107 13.9464 49.802 13.9624 49.7937 13.9793C49.774 13.8337 49.7123 13.739 49.7001 13.7214C49.7202 13.7279 49.7396 13.7286 49.7574 13.7263ZM47.2913 15.0142C47.5846 14.6826 47.6087 14.5695 47.5601 14.4232C47.5111 14.2765 47.3305 14.0442 47.2471 13.9644C47.1641 13.8841 47.0471 13.8272 46.6506 13.9456C46.3522 14.0343 46.1929 13.9231 46.0692 13.7814C46.0858 13.7825 46.1004 13.7837 46.1119 13.7821C46.1494 13.7772 46.1656 13.7753 46.2083 13.7921C46.2494 13.8081 46.3135 13.7921 46.3569 13.7588C46.4012 13.726 46.389 13.7493 46.4131 13.7493C46.4376 13.7493 46.4597 13.7275 46.5352 13.7176C46.6111 13.7088 46.7091 13.6289 46.7091 13.6289C46.751 13.6404 46.8162 13.5693 46.8538 13.5292C46.8905 13.4891 46.8803 13.5487 46.9052 13.5338C46.9293 13.5208 46.9372 13.5464 46.9759 13.551C47.0147 13.5552 47.1328 13.5086 47.1328 13.5086C47.2008 13.5277 47.3214 13.4016 47.3214 13.4016C47.3795 13.4066 47.436 13.3355 47.436 13.3355C47.5238 13.3665 47.5783 13.3118 47.6273 13.2626C47.6755 13.2129 47.6953 13.2007 47.7419 13.1892C47.7886 13.177 47.7929 13.1537 47.8415 13.1063C47.891 13.0589 47.8854 13.0956 47.9151 13.1013C47.9443 13.1086 47.9716 13.0738 47.9886 13.1063C48.0064 13.1399 48.0036 13.1586 48.0617 13.1162C48.1198 13.0742 48.0886 13.2652 48.091 13.3225C48.0945 13.3787 48.1281 13.4211 48.2135 13.4352C48.2993 13.4498 48.3704 13.355 48.3704 13.355C48.4455 13.3665 48.517 13.3359 48.5364 13.2958C48.5562 13.2553 48.5684 13.258 48.5827 13.2836C48.5973 13.3099 48.6684 13.2977 48.7008 13.2461C48.7321 13.1942 48.751 13.2385 48.7787 13.2671C48.8056 13.2958 48.8348 13.2931 48.857 13.2671C48.8787 13.2412 48.8918 13.279 48.9333 13.2603C48.9744 13.2412 48.9969 13.258 49.0427 13.2817C49.089 13.3053 49.0578 13.3405 49.0601 13.3714C49.0625 13.402 49.1072 13.4234 49.1337 13.4711C49.1609 13.5185 49.1637 13.5067 49.2119 13.53C49.2609 13.5533 49.3147 13.5991 49.3831 13.6507C49.4459 13.6981 49.5016 13.6679 49.5281 13.6274C49.538 13.6694 49.5526 13.7382 49.5736 13.7382C49.5945 13.7382 49.6123 13.6847 49.6277 13.6515C49.6495 13.6805 49.6736 13.6732 49.6973 13.682C49.6858 13.7034 49.5147 14.0358 49.7234 14.3334H49.7238C49.7337 14.3334 49.7416 14.3212 49.7491 14.3013C49.7708 14.4946 49.759 14.5382 49.759 14.5382C49.759 14.5382 49.6649 14.6539 49.5973 14.8583C49.1341 14.6639 48.6744 14.725 48.1775 14.8786C47.6728 15.0341 47.2913 15.0142 47.2913 15.0142ZM49.4352 15.418C49.3771 15.5865 49.3005 15.7592 49.1961 15.8967C48.6791 15.8826 48.3253 15.7336 48.1139 15.6033C48.1605 15.5884 48.2028 15.575 48.24 15.5624C48.5091 15.4715 48.7542 15.3966 49.3163 15.4108C49.357 15.4119 49.3961 15.4153 49.4352 15.418ZM47.7696 15.6694C47.8147 15.6618 47.8593 15.6598 47.9111 15.6476C48.0558 15.7878 48.4621 16.1007 49.2277 16.1007C50.219 16.1007 50.7254 15.6404 50.7254 15.6404C50.7254 15.6404 51.2309 16.1022 52.2222 16.1022C52.9886 16.1022 53.3942 15.7928 53.5385 15.653C53.5914 15.6652 53.6353 15.6618 53.6804 15.669C53.8005 16.6317 53.6009 17.9987 53.6009 17.9987H50.725H47.8487C47.8487 17.9991 47.6498 16.6321 47.7696 15.6694ZM47.8487 18.1652H50.725H53.6005C53.6005 18.1652 53.5124 19.2288 53.0432 20.1209H50.725H48.406C47.9364 19.2285 47.8487 18.1652 47.8487 18.1652ZM50.725 22.718C49.0012 21.5119 48.4941 20.2779 48.4941 20.2779H50.725H52.955C52.955 20.2779 52.4499 21.5119 50.725 22.718Z" fill="white"/>
<path d="M51.8033 17.8696C51.9033 17.8673 51.9953 17.8329 52.0728 17.7756C52.1143 17.789 52.1566 17.7958 52.2009 17.7943C52.3558 17.7928 52.4906 17.695 52.5645 17.5517C52.6349 17.5609 52.706 17.5517 52.7709 17.5185C52.912 17.4455 52.9764 17.2808 52.946 17.1143C52.9543 17.1093 52.9606 17.1032 52.9681 17.0978C53.0962 16.9943 53.0934 16.7895 52.9641 16.6375C52.9602 16.6325 52.9566 16.6287 52.9515 16.6249C52.9954 16.5932 53.0246 16.5477 53.0246 16.4942C53.0246 16.3999 52.9068 16.3242 52.7985 16.3242C52.6914 16.3242 52.5732 16.3999 52.5732 16.4942V16.495C52.5732 16.5003 52.5056 16.5183 52.4669 16.5508C52.412 16.5943 52.3973 16.6585 52.3898 16.728C52.3701 16.7349 52.3578 16.741 52.3388 16.7513C52.3123 16.7639 52.2934 16.7823 52.2728 16.8014C52.2412 16.7937 52.2123 16.7895 52.1791 16.7907C52.1321 16.7911 52.0878 16.8014 52.0452 16.8182C51.9677 16.767 51.878 16.7376 51.7807 16.7403C51.5013 16.7445 51.2803 17.0023 51.2862 17.3137C51.2926 17.6266 51.5246 17.8745 51.8033 17.8696Z" fill="white"/>
<path d="M48.5065 17.0975C48.5132 17.1028 48.5203 17.1089 48.5286 17.1139C48.4982 17.2805 48.5622 17.4451 48.7029 17.5181C48.7669 17.5513 48.8389 17.5605 48.9096 17.5513C48.9835 17.6946 49.1179 17.7924 49.2729 17.7939C49.3171 17.7954 49.3598 17.789 49.4009 17.7752C49.478 17.8325 49.5701 17.8669 49.6701 17.8692C49.9496 17.8741 50.1808 17.6262 50.1875 17.3137C50.193 17.002 49.9717 16.7445 49.6922 16.7403C49.5958 16.7376 49.5053 16.767 49.427 16.8178C49.3855 16.8014 49.3401 16.7915 49.2926 16.7907C49.2598 16.7895 49.2278 16.7937 49.1982 16.8006C49.1768 16.7823 49.1539 16.7639 49.127 16.7513C49.1084 16.741 49.0883 16.7341 49.0685 16.728C49.0618 16.6585 49.0527 16.5943 48.9974 16.5508C48.9586 16.5179 48.882 16.5003 48.882 16.495V16.4942C48.882 16.3999 48.7733 16.3242 48.6657 16.3242C48.5574 16.3242 48.4594 16.3999 48.4594 16.4942C48.4594 16.5477 48.4823 16.5932 48.5258 16.6249C48.5223 16.6283 48.5163 16.6325 48.512 16.6375C48.3816 16.7884 48.378 16.9935 48.5065 17.0975Z" fill="white"/>
<path d="M50.7438 20.0018L50.9826 19.6522L50.9371 19.4868L51.1249 19.5117C51.1375 19.5873 51.1881 19.674 51.2632 19.6847C51.3391 19.6977 51.4644 19.6847 51.4644 19.6847L51.5356 19.6045C51.4478 19.5235 51.3391 19.4551 51.3391 19.4551C51.3138 18.9726 51.2265 18.6448 51.162 18.471C51.0996 18.2972 51.0162 18.2922 50.8565 18.3124C50.6976 18.3327 50.266 18.5844 50.266 18.5844L50.2363 18.8267L50.3838 18.8423C50.3838 18.8423 50.2996 19.114 50.2699 19.2118C50.2407 19.3096 50.266 19.305 50.3201 19.342C50.3743 19.3779 50.5802 19.4261 50.5802 19.4261L50.5213 19.6775L50.7438 20.0018Z" fill="white"/>
<path d="M50.1826 16.9333C50.2684 17.412 50.5874 17.4556 50.7135 17.4529C50.7115 17.6218 50.6814 17.7555 50.6814 17.7555L50.8384 17.8594C50.8554 17.6585 50.8518 17.4991 50.8388 17.3723C51.2158 17.3196 51.2929 16.7775 51.2929 16.7775C50.9257 16.9375 50.8482 17.1943 50.832 17.3108C50.8059 17.1175 50.7581 17.012 50.7328 16.9685C50.9716 16.9429 51.1565 16.7477 51.1565 16.51C51.1565 16.3771 51.0984 16.2571 51.004 16.1731L51.0822 16.0314L50.9158 16.0634L50.8474 15.9404L50.7253 16.0356L50.6522 15.9404L50.5739 16.0497L50.4269 15.9695L50.468 16.0982C50.3107 16.1731 50.2024 16.3293 50.2024 16.51C50.2024 16.7385 50.3747 16.9272 50.6 16.9651C50.6743 17.0778 50.7036 17.221 50.7119 17.3547C50.5059 17.0369 50.1826 16.9333 50.1826 16.9333ZM50.7 16.9609C50.585 16.9609 50.4913 16.7622 50.4913 16.5165C50.4913 16.2728 50.585 16.0741 50.7 16.0741C50.815 16.0741 50.9083 16.2728 50.9083 16.5165C50.9083 16.7622 50.815 16.9609 50.7 16.9609Z" fill="white"/>
<path d="M51.1157 20.8721C51.0734 20.7732 51.0734 20.6754 51.1157 20.5757H50.5418C50.4991 20.6754 50.4991 20.7732 50.5418 20.8721H51.1157Z" fill="white"/>
<path d="M50.5428 21.5664C50.5001 21.6654 50.5001 21.864 50.5428 21.9637H51.1167C51.0744 21.864 51.0744 21.6657 51.1167 21.5664H50.5428Z" fill="white"/>
<path d="M51.2525 21.1709L51.3806 20.9723H50.5035L50.407 20.8726H50.3671H50.041L50.0865 20.9723H50.1746L50.2683 21.1709H51.2525Z" fill="white"/>
<path d="M51.2454 22.0632H51.213H51.0675H50.9438H50.7987H50.7055H50.5505H50.5027L50.4497 21.9639H50.2568L50.3157 22.077L50.473 22.1606H51.2296L51.3821 22.0754L51.4035 21.9639H51.2798L51.2454 22.0632Z" fill="white"/>
<path d="M74.6334 14.9975C73.805 14.2128 72.5789 13.7963 71.5022 13.7963C68.7852 13.7963 67.2112 15.7657 67.2278 18.1359C67.2278 20.1855 68.4871 22.1714 71.5022 22.1714C72.4963 22.1714 73.4073 21.9311 74.335 21.1784V18.9046H71.1045V17.3034H76.0584V21.8994C74.8987 23.1326 73.4571 23.8531 71.5022 23.8531C67.2444 23.8531 65.4053 21.115 65.4053 18.1363C65.4053 14.9016 67.5425 12.1475 71.5022 12.1475C73.0429 12.1475 74.6002 12.7079 75.7931 13.8449L74.6334 14.9975Z" fill="white"/>
<path d="M89.4323 18.0319C89.4323 21.0706 87.5192 23.8526 83.4769 23.8526C79.4346 23.8526 77.5215 21.0064 77.5215 18.0479C77.5215 14.623 80.0002 12.147 83.5101 12.147C87.486 12.163 89.4323 14.9928 89.4323 18.0319ZM83.4769 22.1961C86.3714 22.1961 87.586 20.2183 87.586 18.0636C87.586 15.9895 86.3548 13.8348 83.5105 13.7867C80.8156 13.7867 79.3681 15.6036 79.3681 18.0636C79.4013 20.0578 80.599 22.1961 83.4769 22.1961Z" fill="white"/>
<path d="M96.724 23.8523H94.7145L89.7168 12.1826H91.8809L95.7109 21.6281L99.558 12.1826H101.705L96.724 23.8523Z" fill="white"/>
<path d="M102.962 22.6748C102.962 24.245 100.535 24.245 100.535 22.6748C100.535 21.1234 102.962 21.1234 102.962 22.6748Z" fill="white"/>
<path d="M114.718 22.1754C113.517 23.3199 111.966 23.8521 110.331 23.8521C106.094 23.8521 104.192 21.0304 104.176 18.0639C104.159 15.0973 106.161 12.1465 110.331 12.1465C111.899 12.1465 113.417 12.7108 114.602 13.8557L113.351 15.0167C112.517 14.2267 111.415 13.8557 110.331 13.8557C107.362 13.8557 106.011 15.968 106.028 18.0478C106.044 20.1116 107.312 22.1593 110.331 22.1593C111.415 22.1593 112.617 21.7238 113.434 20.9337L114.718 22.1754Z" fill="white"/>
<path d="M128.162 18.0496C128.162 21.0791 126.254 23.8523 122.224 23.8523C118.194 23.8523 116.287 21.0149 116.287 18.0656C116.287 14.6513 118.758 12.1826 122.258 12.1826C126.221 12.1987 128.162 15.02 128.162 18.0496ZM122.224 22.2016C125.11 22.2016 126.321 20.2299 126.321 18.0817C126.321 16.0137 125.094 13.8659 122.258 13.8177C119.571 13.8177 118.128 15.629 118.128 18.0817C118.161 20.0694 119.355 22.2016 122.224 22.2016Z" fill="white"/>
<path d="M61.8647 9.80566H60.5615V16.829H61.8647V9.80566Z" fill="#FBD000"/>
<path d="M61.8647 16.8291H60.5615V21.5114H61.8647V16.8291Z" fill="#00549F"/>
<path d="M61.8647 21.5112H60.5615V26.1939H61.8647V21.5112Z" fill="#D21A3A"/>
</svg>
