<svg width="19" height="14" viewBox="0 0 19 14" fill="none" xmlns="http://www.w3.org/2000/svg">
<path d="M14.692 13.125H16C16.9665 13.125 17.8085 12.3165 17.5015 11.4C17.0336 10.0034 15.8824 9.15884 13.8586 8.86629M11.1876 6.00642C11.4422 6.08691 11.7338 6.125 12.0625 6.125C13.5208 6.125 14.25 5.375 14.25 3.5C14.25 1.625 13.5208 0.875 12.0625 0.875C11.7338 0.875 11.4422 0.913095 11.1876 0.993577M6.8125 8.75C9.97427 8.75 11.6596 9.63335 12.2515 11.4C12.5585 12.3165 11.7165 13.125 10.75 13.125H2.875C1.9085 13.125 1.06647 12.3165 1.3735 11.4C1.96541 9.63335 3.65073 8.75 6.8125 8.75ZM6.8125 6.125C8.27083 6.125 9 5.375 9 3.5C9 1.625 8.27083 0.875 6.8125 0.875C5.35417 0.875 4.625 1.625 4.625 3.5C4.625 5.375 5.35417 6.125 6.8125 6.125Z" stroke="#F6F6F6" stroke-width="1.75" stroke-linecap="round" stroke-linejoin="round"/>
</svg>
