<svg width="206" height="40" viewBox="0 0 206 40" fill="none" xmlns="http://www.w3.org/2000/svg">
<path d="M54.1168 27.8697C52.5661 27.8697 51.3021 27.4735 50.3213 26.681C49.3405 25.8886 48.8535 24.5821 48.8535 22.7647V13.0721H54.0581V21.6023C54.0581 22.5322 54.2515 23.1806 54.6383 23.5473C55.0251 23.9141 55.5777 24.0974 56.2926 24.0974C57.0075 24.0974 57.6533 23.842 58.1748 23.3279C58.6963 22.8171 58.9553 21.9886 58.9553 20.8458V13.0688H64.1599V27.5783H59.5079L59.3559 24.8506C58.8655 25.8755 58.1817 26.6352 57.3045 27.1297C56.4273 27.6241 55.367 27.8697 54.1203 27.8697H54.1168Z" fill="#F6F6F6"/>
<path d="M71.8373 6.91943V22.647C71.8373 23.2855 71.9478 23.7407 72.1758 24.0124C72.4002 24.2842 72.7767 24.4185 73.3085 24.4185C73.6159 24.4185 73.868 24.3988 74.0752 24.3595C74.279 24.3203 74.5242 24.2646 74.8109 24.186L74.4759 27.1462C74.1098 27.359 73.6297 27.5326 73.0357 27.6668C72.4451 27.8011 71.8615 27.8698 71.2916 27.8698C69.6581 27.8698 68.477 27.5129 67.7413 26.7958C67.0057 26.0787 66.6396 24.9097 66.6396 23.2855V6.91943H71.8442H71.8373Z" fill="#F6F6F6"/>
<path d="M85.9448 13.0689V16.5792H81.386V22.4111C81.386 23.1086 81.5656 23.6063 81.9213 23.9043C82.277 24.2055 82.7744 24.3529 83.4064 24.3529C83.8968 24.3529 84.3147 24.3005 84.66 24.1924C85.0054 24.0877 85.3335 23.9272 85.6409 23.7144L86.1934 26.7629C85.6823 27.0937 85.0365 27.3589 84.2491 27.5619C83.4651 27.7649 82.6742 27.8665 81.8764 27.8665C80.122 27.8665 78.7406 27.5128 77.7287 26.8088C76.7202 26.1015 76.2022 24.9096 76.1814 23.2265V16.5824H73.5498V13.0722H76.1814V9.82055L81.386 8.45508V13.0689H85.9448Z" fill="#F6F6F6"/>
<path d="M89.772 11.3855C88.7117 11.3855 87.9416 11.1956 87.4615 10.819C86.9815 10.4424 86.7432 9.84647 86.7432 9.03439C86.7432 8.22231 86.9815 7.59687 87.4615 7.2203C87.9416 6.84373 88.7117 6.65381 89.772 6.65381C90.8322 6.65381 91.5782 6.84373 92.0686 7.2203C92.559 7.59687 92.8042 8.20266 92.8042 9.03439C92.8042 9.86612 92.559 10.4424 92.0686 10.819C91.5782 11.1956 90.815 11.3855 89.772 11.3855ZM92.3725 13.0686V27.578H87.168V13.0686H92.3725Z" fill="#F6F6F6"/>
<path d="M104.83 13.0688H110.217L104.709 27.5783H98.4958L92.9873 13.0688H98.4647L101.618 24.1236L104.83 13.0688Z" fill="#F6F6F6"/>
<path d="M119.062 18.3801C119.062 17.7022 118.862 17.1652 118.465 16.769C118.067 16.3728 117.532 16.173 116.859 16.173C116.185 16.173 115.609 16.3335 115.128 16.6511C114.648 16.972 114.317 17.5352 114.134 18.3473L109.727 17.3617C110.014 15.97 110.767 14.8567 111.993 14.0249C113.215 13.1932 114.942 12.7773 117.166 12.7773C119.39 12.7773 121.148 13.2456 122.384 14.1854C123.617 15.1252 124.236 16.4939 124.236 18.2916V23.6029C124.236 24.3561 124.591 24.7359 125.306 24.7359C125.672 24.7359 125.969 24.6966 126.194 24.6213L125.886 27.4374C125.275 27.7092 124.529 27.8434 123.652 27.8434C122.692 27.8434 121.866 27.6633 121.172 27.3064C120.478 26.9495 120.008 26.4026 119.763 25.6659C119.335 26.419 118.655 26.9757 117.729 27.3359C116.8 27.6928 115.816 27.8729 114.776 27.8729C113.205 27.8729 111.955 27.5291 111.026 26.8414C110.097 26.1538 109.634 25.1649 109.634 23.8682C109.634 22.8236 109.965 21.9591 110.628 21.2715C111.292 20.5838 112.338 20.1057 113.764 19.8339L119.059 18.7894V18.3833L119.062 18.3801ZM114.776 23.3999C114.776 23.8256 114.939 24.1432 115.267 24.3561C115.591 24.5689 115.982 24.677 116.43 24.677C117.125 24.677 117.736 24.4772 118.268 24.081C118.8 23.6848 119.062 23.0593 119.062 22.208V21.3959L116.582 21.8903C115.971 22.005 115.515 22.1752 115.222 22.3979C114.925 22.6206 114.776 22.9546 114.776 23.3999Z" fill="#F6F6F6"/>
<path d="M124.615 29.0088H96.4402C95.4836 29.0088 94.71 29.8569 94.71 30.908C94.71 34.8767 97.6421 38.0923 101.261 38.0923H119.79C123.409 38.0923 126.341 34.8767 126.341 30.908C126.341 29.8602 125.568 29.0088 124.611 29.0088H124.615Z" fill="#F6F6F6"/>
<path d="M101.466 30.335C102.036 30.335 102.536 30.4168 102.971 30.5838C103.407 30.7508 103.787 30.9964 104.108 31.3173L103.338 32.2931C103.072 32.0279 102.785 31.8314 102.481 31.7004C102.174 31.5695 101.828 31.504 101.438 31.504C101.1 31.504 100.854 31.5564 100.706 31.6611C100.557 31.7659 100.485 31.8969 100.485 32.0475C100.485 32.172 100.544 32.2735 100.664 32.3586C100.785 32.4438 100.982 32.5158 101.252 32.5747L102.281 32.7941C102.892 32.9284 103.341 33.1249 103.624 33.3835C103.907 33.6422 104.049 33.9828 104.049 34.4117C104.049 34.8407 103.938 35.1682 103.714 35.453C103.493 35.7379 103.186 35.9508 102.795 36.0948C102.405 36.2389 101.96 36.311 101.462 36.311C100.844 36.311 100.278 36.216 99.7665 36.0261C99.2519 35.8362 98.8444 35.584 98.5439 35.2762L99.3141 34.2644C99.542 34.5165 99.8529 34.7261 100.24 34.8931C100.63 35.0601 101.031 35.142 101.445 35.142C102.087 35.142 102.409 34.9619 102.409 34.6049C102.409 34.4805 102.36 34.379 102.263 34.2939C102.167 34.2087 101.994 34.1367 101.739 34.0777L100.609 33.842C100.264 33.7732 99.9565 33.6717 99.6871 33.544C99.4177 33.4163 99.207 33.2427 99.0516 33.0299C98.8962 32.8171 98.8202 32.5485 98.8202 32.2244C98.8202 31.8609 98.9238 31.5367 99.1345 31.2551C99.3452 30.9735 99.6456 30.7476 100.043 30.5838C100.437 30.4201 100.91 30.3382 101.462 30.3382L101.466 30.335Z" fill="#00304D"/>
<path d="M104.691 36.2225V30.4233H109.454V31.5923H106.284V32.7712H108.805V33.8681H106.284V35.0535H109.575V36.2225H104.691Z" fill="#00304D"/>
<path d="M115.691 30.4233V36.2225H113.919L112.02 33.0855L111.557 32.2243H111.547L111.585 33.2951V36.2225H110.176V30.4233H111.944L113.844 33.5603L114.306 34.4215H114.317L114.279 33.3508V30.4233H115.688H115.691Z" fill="#00304D"/>
<path d="M122.244 36.2225H120.603L120.178 34.9127H118.085L117.65 36.2225H116.048L118.199 30.4233H120.109L122.251 36.2225H122.244ZM118.379 33.8845H119.881L119.132 31.54L118.382 33.8845H118.379Z" fill="#00304D"/>
<path d="M28.8156 23.8941C29.4476 23.6583 29.0366 23.3079 29.0746 22.9314C29.7791 15.9042 40.4887 14.7516 45.4515 18.3765C44.0114 18.7367 42.7785 19.7125 41.7976 20.7473C40.0398 22.5941 39.0866 25.5739 36.3651 26.3663C34.3793 26.9459 32.1448 26.7757 30.4318 25.6165C31.986 23.0329 34.6107 20.9437 37.339 19.5324C37.377 19.3261 37.1629 19.3982 37.0317 19.4342C33.8267 20.2856 29.1782 24.3361 28.4702 27.4797C28.2561 28.4227 29.5926 29.3265 30.3213 29.8439C35.8367 33.7831 41.9358 32.1164 46.871 28.3802C47.1507 28.1673 47.5721 27.5386 47.9312 27.627L53.5606 33.0464C51.2467 35.3746 48.546 37.4703 45.3548 38.6131C33.212 42.9551 19.1455 36.7957 16.5449 24.4377C16.1478 22.545 16.1961 21.2515 15.5572 19.3458C14.345 15.7176 13.6508 11.4509 10.0107 9.20784C9.95201 8.91969 10.1454 9.04739 10.325 8.99827C17.9609 6.97134 30.1556 11.5753 29.0677 20.4788C29.0055 20.9765 28.6118 21.5986 28.5807 21.9195C28.5358 22.3551 29.0331 23.3014 28.8121 23.8908L28.8156 23.8941ZM27.7311 27.0966C27.7967 22.2568 25.0131 17.8002 21.3765 14.5912L19.4805 13.2486C22.5542 16.3954 25.1478 20.1284 26.2357 24.346L27.7311 27.0966Z" fill="#F6F6F6"/>
<path d="M49.7237 9.99024C49.0848 10.6844 48.3941 11.3492 47.8277 12.1056L47.5479 12.23C45.7521 10.93 43.8595 9.38773 41.701 8.66406C37.5429 7.26584 32.6802 7.90437 29.42 10.8122C28.6706 11.4802 28.1629 12.4101 27.4135 12.9864C25.9146 11.2935 23.7388 9.99679 21.6045 9.1225C21.1521 8.93585 20.5477 8.82451 20.078 8.64441C19.9468 8.5953 19.8363 8.71645 19.8846 8.44139C23.3348 3.37571 29.603 0.340224 35.9093 0.0356932C42.3606 -0.278661 48.7049 1.46666 53.2326 5.93638L53.1946 6.1525C52.0031 7.40337 50.8876 8.71973 49.7203 9.98697L49.7237 9.99024Z" fill="#F6F6F6"/>
</svg>
