<svg xmlns="http://www.w3.org/2000/svg" viewBox="0 0 56 64"><defs><style>.cls-1{fill:#722e60;}.cls-2{fill:#512343;}.cls-3{fill:#74d800;}</style></defs><title>Fruit Grapes</title><g id="Layer_2" data-name="Layer 2"><g id="Layer_1-2" data-name="Layer 1"><circle class="cls-1" cx="18" cy="48" r="8"/><circle class="cls-2" cx="28" cy="56" r="8"/><circle class="cls-1" cx="38" cy="48" r="8"/><circle class="cls-2" cx="26" cy="44" r="8"/><circle class="cls-2" cx="16" cy="20" r="8"/><circle class="cls-2" cx="44" cy="38" r="8"/><circle class="cls-1" cx="8" cy="26" r="8"/><circle class="cls-2" cx="48" cy="26" r="8"/><circle class="cls-2" cx="12" cy="38" r="8"/><circle class="cls-1" cx="22" cy="38" r="8"/><circle class="cls-2" cx="32" cy="40" r="8"/><circle class="cls-1" cx="38" cy="30" r="8"/><path class="cls-3" d="M28,38a2,2,0,0,1-2-1.83C24,12,28,1.68,28.14,1.26a2,2,0,0,1,3.72,1.48h0c0,.1-3.79,10-1.87,33.1A2,2,0,0,1,28.17,38Z"/><circle class="cls-2" cx="40" cy="20" r="8"/><circle class="cls-1" cx="28" cy="20" r="8"/><circle class="cls-2" cx="18" cy="24" r="8"/><circle class="cls-2" cx="28" cy="30" r="8"/></g></g></svg>