<svg width="28" height="28" viewBox="0 0 28 28" fill="none" xmlns="http://www.w3.org/2000/svg">
<rect width="28" height="28" rx="14" fill="#E1E1E6"/>
<path d="M14.0646 18.64C13.0753 18.64 12.2493 18.4487 11.5866 18.066C10.9333 17.674 10.4806 17.1047 10.2286 16.358L12.4406 15.406C12.4873 15.742 12.5713 16.0127 12.6926 16.218C12.8233 16.414 12.9959 16.5587 13.2106 16.652C13.4253 16.736 13.6773 16.778 13.9666 16.778C14.2279 16.778 14.4473 16.736 14.6246 16.652C14.8113 16.5587 14.9559 16.428 15.0586 16.26C15.1613 16.092 15.2126 15.8913 15.2126 15.658C15.2126 15.4153 15.1613 15.2193 15.0586 15.07C14.9653 14.9207 14.8253 14.8133 14.6386 14.748C14.4613 14.6827 14.2419 14.65 13.9806 14.65C13.8593 14.65 13.7473 14.6547 13.6446 14.664C13.5419 14.664 13.4253 14.6733 13.2946 14.692V13.124C13.3693 13.1333 13.4439 13.1427 13.5186 13.152C13.5933 13.152 13.6819 13.152 13.7846 13.152C14.2233 13.152 14.5359 13.0633 14.7226 12.886C14.9186 12.6993 15.0166 12.41 15.0166 12.018C15.0166 11.682 14.9186 11.4253 14.7226 11.248C14.5359 11.0707 14.2699 10.982 13.9246 10.982C13.5606 10.982 13.2619 11.08 13.0286 11.276C12.7953 11.4627 12.6459 11.7847 12.5806 12.242L10.4666 11.514C10.5693 11.0007 10.7886 10.5667 11.1246 10.212C11.4606 9.85733 11.8806 9.58667 12.3846 9.4C12.8979 9.21333 13.4626 9.12 14.0786 9.12C14.7879 9.12 15.3853 9.22267 15.8706 9.428C16.3559 9.63333 16.7246 9.92733 16.9766 10.31C17.2286 10.6927 17.3546 11.1407 17.3546 11.654C17.3546 12.0553 17.2893 12.3913 17.1586 12.662C17.0373 12.9327 16.8786 13.152 16.6826 13.32C16.4959 13.488 16.3046 13.614 16.1086 13.698C15.9126 13.7727 15.7493 13.8193 15.6186 13.838V13.88C15.7866 13.88 15.9779 13.9127 16.1926 13.978C16.4073 14.0433 16.6173 14.1507 16.8226 14.3C17.0279 14.44 17.1959 14.636 17.3266 14.888C17.4666 15.14 17.5366 15.4527 17.5366 15.826C17.5366 16.4047 17.3826 16.904 17.0746 17.324C16.7759 17.744 16.3653 18.0707 15.8426 18.304C15.3199 18.528 14.7273 18.64 14.0646 18.64Z" fill="#7C7C8A"/>
</svg>
