<svg width="28" height="28" viewBox="0 0 28 28" fill="none" xmlns="http://www.w3.org/2000/svg">
<rect width="28" height="28" rx="14" fill="#1A46A7"/>
<path d="M10.6701 18.5V16.96C11.4634 16.4653 12.1401 16.0033 12.7001 15.574C13.2601 15.1447 13.7127 14.7387 14.0581 14.356C14.4127 13.9733 14.6741 13.6093 14.8421 13.264C15.0101 12.9187 15.0941 12.5827 15.0941 12.256C15.0941 11.9013 14.9867 11.6073 14.7721 11.374C14.5667 11.1313 14.2587 11.01 13.8481 11.01C13.4094 11.01 13.0687 11.1733 12.8261 11.5C12.5834 11.8173 12.4527 12.284 12.4341 12.9L10.3761 12.27C10.3947 11.5793 10.5581 11.0007 10.8661 10.534C11.1834 10.0673 11.6127 9.71733 12.1541 9.484C12.6954 9.24133 13.3114 9.12 14.0021 9.12C14.6087 9.12 15.1314 9.20867 15.5701 9.386C16.0181 9.554 16.3821 9.78267 16.6621 10.072C16.9421 10.352 17.1474 10.6693 17.2781 11.024C17.4181 11.3693 17.4881 11.724 17.4881 12.088C17.4881 12.6853 17.3341 13.2453 17.0261 13.768C16.7181 14.2813 16.2701 14.7807 15.6821 15.266C15.1034 15.742 14.3987 16.2227 13.5681 16.708V16.722C13.7267 16.7127 13.9134 16.7033 14.1281 16.694C14.3427 16.6847 14.5667 16.68 14.8001 16.68C15.0334 16.6707 15.2434 16.666 15.4301 16.666H17.6001V18.5H10.6701Z" fill="white"/>
</svg>
