<svg width="13" height="22" viewBox="0 0 13 22" fill="none" xmlns="http://www.w3.org/2000/svg">
<path d="M8 21V15.9612C8 15.3537 7.72382 14.7791 7.24939 14.3995L5.5 13M5.5 13L7 6.5M5.5 13L4 12M7 6.5L5 6M7 6.5L9.04256 9.7681C9.33451 10.2352 9.80618 10.5612 10.3463 10.6693L12 11M4 12L5 6M4 12L2 21M5 6L2.10557 7.44721C1.428 7.786 1 8.47852 1 9.23607V11M8.5 2.5C8.5 3.05228 8.05228 3.5 7.5 3.5C6.94772 3.5 6.5 3.05228 6.5 2.5C6.5 1.94772 6.94772 1.5 7.5 1.5C8.05228 1.5 8.5 1.94772 8.5 2.5Z" stroke="black" stroke-width="2" stroke-linecap="round" stroke-linejoin="round"/>
</svg>
