<svg width="76" height="71" viewBox="0 0 76 71" fill="none" xmlns="http://www.w3.org/2000/svg">
<g opacity="0.9">
<path d="M57.4287 68.1212L52.5289 70.4763H52.1887L39.373 50.1181C38.5017 49.3436 37.1119 49.574 36.4812 50.5232L24.1343 70.5001L23.6157 70.4326L19.0312 68.1609L37.9956 37.3574L57.4246 68.1132L57.4287 68.1212Z" fill="white"/>
<path d="M75.5472 37.0355H53.8404C53.7741 37.0355 53.0978 37.3492 52.9941 37.4247C52.3676 37.8735 52.0979 38.8823 52.4464 39.5693L65.6148 61.4169L61.1922 65.2892L41.1367 31.5825H75.3771L75.5472 31.7454V37.0355Z" fill="white"/>
<path d="M34.8677 31.5825L14.8122 65.2892C14.721 65.3567 14.024 64.7927 13.8995 64.6895C12.7046 63.6926 11.5347 62.4813 10.3937 61.4169L23.6119 39.4065C23.8982 38.7274 23.558 37.7782 22.9398 37.381C22.8444 37.3214 22.2096 37.0355 22.1598 37.0355H0.453125V31.5825H34.8677Z" fill="white"/>
<path d="M37.5772 0.525003C48.2812 -0.205765 49.3143 15.3191 38.7928 16.0896C28.2299 16.864 26.9147 1.2518 37.5772 0.525003Z" fill="white"/>
<path d="M48.7702 25.474V18.8733L48.9403 18.7104H53.4418V29.0723H47.231L40.904 22.2015V28.9094L40.7339 29.0723H36.4025L36.2324 28.9094V18.7104H42.3312L48.7702 25.474Z" fill="white"/>
<path d="M8.7713 25.5816C8.72981 25.9946 8.79204 26.4196 9.16544 26.6738C9.96616 27.2179 13.5839 27.3449 14.0445 26.4235C14.2809 25.7801 13.252 25.5577 12.7583 25.4187C10.6466 24.8309 5.36925 24.7873 4.41917 22.6029C2.45677 18.0872 12.5135 18.3255 14.9531 18.7386C16.6624 19.0285 18.7492 19.7593 18.575 21.7649H14.1897C13.8661 20.5973 12.0738 20.5019 10.9992 20.5655C9.43511 20.6608 8.43939 21.4392 10.4599 22.0588C12.8206 22.7856 19.4794 22.6228 19.1351 26.1654C18.8239 29.3268 11.7543 29.3228 9.40607 29.1758C7.05783 29.0289 3.90886 28.4173 3.99184 25.5776H8.7796L8.7713 25.5816Z" fill="white"/>
<path d="M73.6105 29.0724H68.4244L67.0346 27.1303C64.6988 27.1303 62.3505 26.904 60.2139 27.1025C59.3095 27.1859 59.0896 28.4807 58.5129 29.0724H53.7832L61.0976 18.7305L66.6114 18.8099L73.6105 29.0724ZM65.8605 24.9261L63.6948 21.2167L61.1889 24.9261" fill="white"/>
<path d="M33.9542 18.7104V20.8392L33.784 21.002H25.8639L25.9759 22.5311H33.2696V24.8227H25.9759V26.7846H34.2944C34.2031 26.8919 34.2944 26.9912 34.2944 27.0587V28.9134L34.1243 29.0762H21.0762V18.7144H33.9542V18.7104Z" fill="white"/>
</g>
</svg>
